<svg width="40" height="40" viewBox="0 0 40 40" fill="none" xmlns="http://www.w3.org/2000/svg">
<path d="M23.3333 15.5V20.3333H27.6667C28 20.3333 28.1667 20.6667 28.1667 21L27.5 24.1667C27.5 24.3333 27.1667 24.5 27 24.5H23.3333V36.6667H18.3333V24.6667H15.5C15.1667 24.6667 15 24.5 15 24.1667V21C15 20.6667 15.1667 20.5 15.5 20.5H18.3333V15C18.3333 12.1667 20.5 10 23.3333 10H27.8333C28.1667 10 28.3333 10.1667 28.3333 10.5V14.5C28.3333 14.8333 28.1667 15 27.8333 15H23.8333C23.5 15 23.3333 15.1667 23.3333 15.5Z" stroke="black" stroke-width="1.67" stroke-miterlimit="10" stroke-linecap="round"/>
<path d="M25 36.6666H15C6.66665 36.6666 3.33331 33.3333 3.33331 24.9999V14.9999C3.33331 6.66658 6.66665 3.33325 15 3.33325H25C33.3333 3.33325 36.6666 6.66658 36.6666 14.9999V24.9999C36.6666 33.3333 33.3333 36.6666 25 36.6666Z" stroke="black" stroke-width="1.67" stroke-linecap="round" stroke-linejoin="round"/>
</svg>
