<svg width="40" height="40" viewBox="0 0 40 40" fill="none" xmlns="http://www.w3.org/2000/svg">
<path d="M15 36.6666H25C33.3333 36.6666 36.6667 33.3333 36.6667 24.9999V14.9999C36.6667 6.66659 33.3333 3.33325 25 3.33325H15C6.66667 3.33325 3.33333 6.66659 3.33333 14.9999V24.9999C3.33333 33.3333 6.66667 36.6666 15 36.6666Z" stroke="black" stroke-width="1.66667" stroke-linecap="round" stroke-linejoin="round"/>
<path d="M20 25.8334C20.766 25.8334 21.5246 25.6825 22.2323 25.3894C22.9401 25.0962 23.5831 24.6665 24.1248 24.1249C24.6665 23.5832 25.0961 22.9401 25.3893 22.2324C25.6825 21.5247 25.8333 20.7661 25.8333 20.0001C25.8333 19.234 25.6825 18.4755 25.3893 17.7678C25.0961 17.06 24.6665 16.417 24.1248 15.8753C23.5831 15.3336 22.9401 14.9039 22.2323 14.6108C21.5246 14.3176 20.766 14.1667 20 14.1667C18.4529 14.1667 16.9692 14.7813 15.8752 15.8753C14.7812 16.9693 14.1667 18.453 14.1667 20.0001C14.1667 21.5472 14.7812 23.0309 15.8752 24.1249C16.9692 25.2188 18.4529 25.8334 20 25.8334Z" stroke="black" stroke-width="1.66667" stroke-linecap="round" stroke-linejoin="round"/>
<path d="M29.3933 11.6667H29.4133" stroke="black" stroke-width="2.5" stroke-linecap="round" stroke-linejoin="round"/>
</svg>
