<svg width="50" height="35" viewBox="0 0 50 35" fill="none" xmlns="http://www.w3.org/2000/svg">
<g clip-path="url(#clip0_10_209)">
<path d="M14.7268 6.3705L14.4299 6.92319L11.0451 9.33757L11.2233 9.2503L7.86817 10.123H8.07601L5.0772 10.0357C3.77078 9.86117 3.29572 9.13394 3.7114 7.88312C4.95843 6.92319 5.22565 6.66139 4.48337 7.12681L13.3907 5.96325C13.0344 5.78872 12.9454 5.78872 13.1532 5.96325C13.361 6.13779 13.3017 6.1087 13.0048 5.81781C12.7078 5.20694 13.0047 6.07961 12.7969 5.3233L0.742279 9.39574C1.0095 9.62846 1.06888 9.65754 0.890735 9.5121C0.593823 9.27939 0.623514 8.95941 0.950117 8.49399L12.6485 6.22506C12.9454 6.6323 12.6188 5.93417 12.5891 5.78872C12.6485 6.22506 12.5891 5.75963 12.6485 5.52692C12.7375 5.14877 12.6485 4.85788 12.6485 5.3233C12.9157 4.97423 12.9157 4.94514 12.6485 5.23603C12.4406 5.49783 12.1734 5.67237 11.8765 5.81781L8.55107 6.92319C8.19477 6.98137 7.83848 6.98137 7.48218 6.95228C7.21496 6.95228 6.38361 6.6323 7.21496 6.98137C7.60095 7.1559 7.86817 7.33043 8.37292 7.91221C10.2138 10.0066 10.6591 13.4973 10.9561 16.2025C11.253 18.9078 11.0748 21.5549 10.4216 24.2893C10.2435 24.9874 10.0356 25.7146 9.76841 26.3837C9.67933 26.6455 9.56057 26.8782 9.4715 27.1109C9.02613 28.1872 9.7981 26.6164 9.20427 27.6345C8.87767 28.1872 8.58076 28.7689 8.22446 29.3216C8.01663 29.6416 7.7791 29.9616 7.54157 30.2525C7.4228 30.3979 6.65083 31.2415 7.27435 30.5725C6.65083 31.2124 5.81948 32.0851 6.0867 33.0741C6.35392 34.0049 7.54157 34.5285 8.40261 34.674C11.1936 35.1685 14.6378 34.3249 16.8052 32.4632C23.6936 26.5582 24.8812 17.1334 22.8028 8.78488C22.2684 6.66139 21.3777 4.36337 19.7743 2.76348C17.6663 0.669078 14.5487 -0.145411 11.5202 3.38051e-05C7.80879 0.203656 3.41449 1.62901 1.15796 4.77061C-0.267222 6.77774 -0.44537 8.9885 0.950117 11.0538C1.95962 12.5664 5.43349 12.1592 6.7696 11.8974C8.81829 11.4901 11.4311 10.5884 12.6188 8.78488C13.5095 7.44679 13.6876 5.73054 12.3812 4.59608C10.4216 2.90892 7.0962 3.46161 4.86936 4.18883C3.23634 4.74152 -0.326605 6.34141 0.296911 8.63943C2.04869 15.2135 13.0047 12.3919 15.6473 7.82494C17.0428 5.41057 15.2019 3.78159 12.8563 3.34526C10.6591 2.90892 8.13539 3.37434 6.11639 4.2761C4.63183 4.91606 2.3753 6.1087 2.16746 7.9413C1.90024 10.6466 5.64133 10.8502 7.60095 10.5884C9.23397 10.3557 10.9561 9.91934 12.3515 9.01759C13.2423 8.43581 14.6081 7.56314 14.7268 6.42868V6.3705Z" fill="white"/>
<path d="M40.9442 6.3705L40.6473 6.92319L37.2625 9.33757L37.4406 9.2503L34.0855 10.123H34.2934L31.2945 10.0357C29.9881 9.86117 29.5131 9.13394 29.9287 7.88312C31.1758 6.92319 31.443 6.66139 30.7007 7.12681L39.6081 5.96325C39.2518 5.78872 39.1627 5.78872 39.3706 5.96325C39.5784 6.13779 39.519 6.1087 39.2221 5.81781C38.9252 5.20694 39.2221 6.07961 39.0143 5.3233L26.9002 9.39574C27.1675 9.62846 27.2268 9.65754 27.0487 9.5121C26.7518 9.27939 26.7815 8.95941 27.1081 8.49399L38.8064 6.22506C39.1033 6.6323 38.7767 5.93417 38.747 5.78872C38.8064 6.22506 38.747 5.75963 38.8064 5.52692C38.8955 5.14877 38.8064 4.85788 38.8064 5.3233C39.0736 4.97423 39.0736 4.94514 38.8064 5.23603C38.5986 5.49783 38.3314 5.67237 38.0344 5.81781L34.709 6.92319C34.3527 6.98137 33.9964 6.98137 33.6401 6.95228C33.3729 6.95228 32.5416 6.6323 33.3729 6.98137C33.7589 7.1559 34.0261 7.33043 34.5309 7.91221C36.3717 10.0066 36.8171 13.4973 37.114 16.2025C37.4109 18.9078 37.2328 21.5549 36.5796 24.2893C36.4014 24.9874 36.1936 25.7146 35.9264 26.3837C35.8373 26.6455 35.7185 26.8782 35.6295 27.1109C35.1841 28.1872 35.9561 26.6164 35.3622 27.6345C35.0356 28.1872 34.7387 28.7689 34.3824 29.3216C34.1746 29.6416 33.9371 29.9616 33.6995 30.2525C33.5808 30.3979 32.8088 31.2415 33.4323 30.5725C32.8088 31.2124 31.9774 32.0851 32.2447 33.0741C32.5119 34.0049 33.6995 34.5285 34.5606 34.674C37.3516 35.1685 40.7957 34.3249 42.9632 32.4632C49.8516 26.5582 51.0392 17.1334 48.9608 8.78488C48.4264 6.66139 47.5356 4.36337 45.9323 2.76348C43.8539 0.669078 40.7363 -0.145411 37.7375 3.38051e-05C33.9964 0.203656 29.6318 1.59992 27.3753 4.77061C25.9501 6.77774 25.772 8.9885 27.1675 11.0538C28.177 12.5664 31.6508 12.1592 32.9869 11.8974C35.0356 11.4901 37.6485 10.5884 38.8361 8.78488C39.7268 7.44679 39.905 5.73054 38.5986 4.59608C36.639 2.90892 33.3135 3.46161 31.0867 4.18883C29.424 4.74152 25.861 6.34141 26.4549 8.63943C28.2067 15.2135 39.1627 12.3919 41.8052 7.82494C43.2007 5.41057 41.3599 3.78159 39.0143 3.34526C36.8171 2.90892 34.2934 3.37434 32.2744 4.2761C30.7898 4.91606 28.5333 6.1087 28.3254 7.9413C28.0582 10.6466 31.7993 10.8502 33.7589 10.5884C35.3919 10.3557 37.114 9.91934 38.5095 9.01759C39.4002 8.43581 40.766 7.56314 40.8848 6.42868L40.9442 6.3705Z" fill="white"/>
</g>
<defs>
<clipPath id="clip0_10_209">
<rect width="50" height="34.8485" fill="white"/>
</clipPath>
</defs>
</svg>
