<svg width="36" height="36" viewBox="0 0 36 36" fill="none" xmlns="http://www.w3.org/2000/svg">
<path d="M20.8833 3.8499L23.8167 9.71657C24.2167 10.5332 25.2833 11.3166 26.1833 11.4666L31.5 12.3499C34.9 12.9166 35.7 15.3832 33.25 17.8166L29.1167 21.9499C28.4167 22.6499 28.0333 23.9999 28.25 24.9666L29.4333 30.0832C30.3667 34.1332 28.2167 35.6999 24.6333 33.5832L19.65 30.6332C18.75 30.0999 17.2667 30.0999 16.35 30.6332L11.3667 33.5832C7.8 35.6999 5.63333 34.1166 6.56667 30.0832L7.75 24.9666C7.96667 23.9999 7.58333 22.6499 6.88333 21.9499L2.75 17.8166C0.316668 15.3832 1.1 12.9166 4.5 12.3499L9.81667 11.4666C10.7 11.3166 11.7667 10.5332 12.1667 9.71657L15.1 3.8499C16.7 0.666569 19.3 0.666569 20.8833 3.8499Z" stroke="white" stroke-width="2.5" stroke-linecap="round" stroke-linejoin="round"/>
</svg>
